<?xml version="1.0" standalone="no"?>
<!DOCTYPE svg PUBLIC "-//W3C//DTD SVG 20010904//EN"
 "http://www.w3.org/TR/2001/REC-SVG-20010904/DTD/svg10.dtd">
<svg version="1.0" xmlns="http://www.w3.org/2000/svg"
 width="66.000000pt" height="66.000000pt" viewBox="0 0 66.000000 66.000000"
 preserveAspectRatio="xMidYMid meet">
<metadata>
Created by potrace 1.15, written by Peter Selinger 2001-2017
</metadata>
<g transform="translate(0.000000,66.000000) scale(0.100000,-0.100000)"
fill="#000000" stroke="none">
<path d="M249 549 c-53 -55 -99 -52 -125 8 l-12 28 -1 -33 c-1 -24 7 -42 28
-63 26 -25 37 -29 86 -29 31 0 68 6 83 14 24 12 30 12 47 0 10 -8 42 -14 72
-14 l53 0 0 -205 c0 -130 4 -205 10 -205 6 0 10 75 10 206 0 205 0 206 25 236
16 18 25 42 25 61 l-1 32 -16 -30 c-32 -59 -70 -61 -122 -6 -31 34 -41 39 -80
39 -38 -1 -50 -6 -82 -39z"/>
</g>
</svg>
